<svg width="36" height="32" viewBox="0 0 36 32" fill="none" xmlns="http://www.w3.org/2000/svg">
<g id="24 / arrows / circle-arrow-right">
<path id="icon" fill-rule="evenodd" clip-rule="evenodd" d="M17.5 30.3333C26.6127 30.3333 34 23.7668 34 15.6667C34 7.56649 26.6127 1 17.5 1C8.3873 1 1 7.56649 1 15.6667C1 23.7668 8.3873 30.3333 17.5 30.3333ZM17.5 27.6667C10.0442 27.6667 4.00002 22.2941 4.00002 15.6667C4.00002 9.03925 10.0442 3.66667 17.5 3.66667C24.9559 3.66667 31 9.03925 31 15.6667C31 22.2941 24.9559 27.6667 17.5 27.6667ZM25 17H15.1213L18.5607 20.0572L16.4393 21.9428L9.37868 15.6667L16.4393 9.39052L18.5607 11.2761L15.1213 14.3333H25V17Z" fill="white"/>
</g>
</svg>
