<svg width="568" height="553" viewBox="0 0 568 553" fill="none" xmlns="http://www.w3.org/2000/svg">
<rect width="334.26" height="131.807" transform="matrix(0.911517 -0.411262 2.8191e-08 1 263.211 421.193)" fill="#EEBF38"/>
<rect width="144.381" height="297.265" transform="matrix(0.91126 0.411832 -2.8144e-08 1 0.00976562 136.957)" fill="url(#paint0_linear)"/>
<rect width="144.375" height="131.38" transform="matrix(0.911517 0.411262 -2.8191e-08 1 131.61 362.244)" fill="#FAC631"/>
<rect width="334.585" height="143.956" transform="matrix(0.911517 -0.411262 0.911517 0.411262 131.555 362.206)" fill="#FFD046"/>
<rect width="274.627" height="166.099" transform="matrix(0.911517 0.411262 -2.8191e-08 1 153.067 78.899)" fill="url(#paint1_linear)"/>
<rect width="153.573" height="166.343" transform="matrix(0.911517 -0.411262 4.56165e-08 1 131.61 196.243)" fill="#FF963C"/>
<rect width="154.314" height="144.11" transform="matrix(0.91126 -0.411832 0.91126 0.411832 0 136.952)" fill="#FFBA34"/>
<rect width="180.469" height="164.452" transform="matrix(0.911517 -0.411262 2.8191e-08 1 403.394 193.489)" fill="#BD181F"/>
<rect width="290.059" height="178.744" transform="matrix(0.911803 0.410627 -0.911803 0.410627 303.523 0)" fill="#E3272E"/>
<defs>
<linearGradient id="paint0_linear" x1="21.1864" y1="233.901" x2="141.19" y2="237.639" gradientUnits="userSpaceOnUse">
<stop offset="0.0577333" stop-color="#FF9A24" stop-opacity="0.8"/>
<stop offset="1" stop-color="#FF8A00"/>
</linearGradient>
<linearGradient id="paint1_linear" x1="274.627" y1="85.7666" x2="110.851" y2="39.3464" gradientUnits="userSpaceOnUse">
<stop offset="0.200886" stop-color="#D92027"/>
<stop offset="1" stop-color="#DE2229" stop-opacity="0.92"/>
</linearGradient>
</defs>
</svg>
