<svg width="115" height="56" viewBox="0 0 115 56" fill="none" xmlns="http://www.w3.org/2000/svg">
<path d="M1.17571 54.9728C1.07865 54.9403 0.999576 54.8181 1 54.7013C1.00128 54.3517 2.28406 54.1069 5.80967 53.7832C7.01518 53.6725 8.95628 53.424 10.1232 53.2311C11.2902 53.0381 13.3586 52.7456 14.7198 52.581C16.0811 52.4165 17.8313 52.198 18.6091 52.0956C19.387 51.9932 20.4371 51.8564 20.9427 51.7915C22.7812 51.5558 23.8242 51.3549 23.8747 51.2265C23.9031 51.1543 23.5267 50.8651 23.0384 50.5838C20.5887 49.1724 18.9643 47.2645 18.0795 44.7591C17.7741 43.8942 17.7216 43.5121 17.7264 42.1916C17.7314 40.8218 17.783 40.4912 18.1677 39.3652C19.2619 36.1625 22.1645 32.6542 25.5518 30.4401C26.7367 29.6655 29.4032 28.5573 30.8532 28.2368C33.4499 27.6628 36.062 27.7833 37.9559 28.5645C38.3638 28.7326 38.7333 28.8397 38.7771 28.8023C38.8991 28.6984 38.5865 25.5106 38.3473 24.4197C37.4735 20.435 37.0158 18.8227 36.7116 18.6583C36.6286 18.6135 36.3204 18.6815 36.0266 18.8094C35.7328 18.9373 35.4199 19.042 35.3313 19.042C35.2427 19.042 34.4917 19.3189 33.6625 19.6573C32.8331 19.9958 31.8998 20.3583 31.5885 20.4629C31.2771 20.5675 30.5947 20.8862 30.0722 21.1711C29.5497 21.456 28.9123 21.7812 28.656 21.8936C28.3996 22.0061 27.6384 22.4845 26.9644 22.9568C25.4026 24.0512 19.8185 27.5154 16.5714 29.4043C13.0238 31.468 6.55784 34.2468 5.57997 34.1279C5.05711 34.0643 5.11728 33.7713 5.80893 33.013C6.84691 31.8748 8.24775 30.8083 10.1383 29.717C11.1122 29.1547 12.3235 28.4498 12.8299 28.1505C14.7981 26.9872 16.0519 26.4034 23.1669 23.336C23.8289 23.0507 25.3878 22.4164 26.6313 21.9266L28.8922 21.036L30.6686 19.5829C31.6458 18.7837 32.8905 17.7554 33.4347 17.2977C35.2844 15.7425 36.0284 15.4603 36.6088 16.0935C36.7672 16.2664 36.9331 16.6063 36.9773 16.8488C37.1488 17.7893 37.5152 17.9068 38.5626 17.3569C38.9494 17.1538 39.3321 16.9876 39.4129 16.9876C39.4938 16.9876 40.1141 16.77 40.7914 16.5042C41.4687 16.2384 42.0793 16.0208 42.1481 16.0208C42.2169 16.0208 42.5871 15.8561 42.9706 15.6547C43.3541 15.4534 43.9763 15.2009 44.3531 15.0938C44.7298 14.9866 45.1019 14.8591 45.1799 14.8105C45.2578 14.7618 45.7355 14.5998 46.2414 14.4503C46.7473 14.3009 47.2569 14.109 47.3739 14.0241C47.4907 13.9391 47.8093 13.814 48.0816 13.7462C48.354 13.6784 49.4368 13.3158 50.4877 12.9405C53.3937 11.9027 55.9118 11.0952 57.6349 10.6488C58.4909 10.427 59.9237 10.0273 60.8188 9.76057C62.4126 9.28566 63.4073 9.01195 66.8327 8.10557C67.7666 7.85845 68.9128 7.54997 69.3797 7.42004C71.0009 6.96898 72.6442 6.56601 74.4733 6.17097C75.4849 5.95252 77.1084 5.58354 78.081 5.35103C79.9738 4.89859 80.5834 4.76627 82.4667 4.39905C83.1281 4.2701 83.7967 4.08417 83.9525 3.98587C85.189 3.20608 85.2236 3.19204 85.7222 3.26686C87.0755 3.46988 87.3423 3.46637 88.5171 3.23027C91.1375 2.70365 93.719 2.25854 98.7342 1.46862C100.938 1.12141 103.837 0.893708 104.058 1.05045C104.349 1.25773 103.921 1.61573 103.273 1.70735C102.824 1.7708 100.927 2.18429 98.2345 2.80571C96.6396 3.17378 94.8396 3.67681 93.1402 4.22926C92.2061 4.53293 91.3465 4.78205 91.2298 4.78285C90.8502 4.78559 89.5313 5.37065 89.5307 5.53673C89.5297 5.80742 90.7102 6.71551 91.063 6.71551C91.2415 6.71551 91.8121 6.55737 92.3312 6.36408C93.1257 6.06828 95.4924 5.38102 97.4495 4.87778C97.7217 4.80774 98.0084 4.71309 98.0863 4.66744C98.1642 4.62181 98.61 4.48529 99.077 4.36414C99.9231 4.14456 100.049 4.1087 100.987 3.81948C101.26 3.73552 102.088 3.5157 102.827 3.33097C103.566 3.14626 104.585 2.87534 105.091 2.72894C106.168 2.41706 108.597 1.8801 108.908 1.88494C109.186 1.8895 103.802 3.3893 100.845 4.13143C100.417 4.23884 99.7163 4.45221 99.2881 4.60559C98.8599 4.75897 98.0639 5.00043 97.5192 5.1422C96.9744 5.28395 96.3056 5.48586 96.0332 5.59089C95.7607 5.69592 95.1875 5.87936 94.7594 5.99853C93.3674 6.38605 91.4374 7.09085 91.2725 7.27184C91.1506 7.40564 91.1744 7.68965 91.3706 8.44157C91.513 8.98773 91.6304 9.6708 91.6314 9.95951C91.6325 10.3807 91.6888 10.4969 91.9145 10.5474C92.186 10.6081 92.1834 10.623 91.8423 10.9683C91.6478 11.1652 91.4883 11.4301 91.4879 11.557C91.4867 11.8485 91.2054 12.862 91.037 13.1809C90.9535 13.339 90.9436 13.2346 91.0084 12.8787C91.063 12.5797 91.1136 12.1457 91.1211 11.9143C91.1331 11.5446 91.0862 11.4861 90.7345 11.431L90.3345 11.3681L90.8618 10.9709L91.3893 10.5736L91.3182 9.58113C91.2303 8.35444 90.8934 7.56144 90.4601 7.56144C89.8507 7.56144 84.8273 9.36682 84.3202 9.7681C84.0633 9.97147 84.0005 10.1515 83.9979 10.6943C83.9962 11.065 83.8973 11.909 83.7783 12.57C83.6394 13.3422 83.6107 13.8135 83.6981 13.8884C83.7854 13.9634 84.0513 13.9136 84.4415 13.7492C84.7754 13.6084 85.3992 13.3516 85.8274 13.1783C86.2557 13.0051 86.7016 12.8144 86.8185 12.7545C86.9353 12.6947 87.2857 12.5402 87.5973 12.4113C87.9087 12.2824 88.561 12.0038 89.0469 11.7922C89.9991 11.3775 90.5922 11.3324 89.6953 11.7428C89.3974 11.8791 89.0263 12.0496 88.8706 12.1217C88.7148 12.1939 88.0761 12.4657 87.4512 12.726C86.1362 13.2735 84.0175 14.2619 83.6899 14.4808C83.3621 14.6999 83.1618 15.0661 82.9354 15.8603C82.825 16.2477 82.5737 17.0812 82.3769 17.7127C81.5651 20.317 81.4142 21.6748 81.3965 26.5292C81.3874 29.0084 81.436 31.0212 81.5059 31.0582C81.575 31.0948 81.7428 30.9803 81.8786 30.8038C82.4122 30.1109 86.6404 22.8437 86.6411 22.6181C86.6413 22.5868 86.9296 22.0409 87.2817 21.4051C87.6339 20.7692 87.9221 20.2209 87.9223 20.1868C87.9224 20.1525 88.1092 19.7859 88.3373 19.3718C88.9829 18.2004 90.1574 15.5606 90.4197 14.6914C90.6872 13.8054 90.9042 13.3962 90.91 13.7671C90.9183 14.2986 89.5643 17.7836 88.986 18.7194C88.8697 18.9077 88.7744 19.1175 88.7741 19.1858C88.7738 19.254 88.3836 20.0518 87.9069 20.9584C87.4302 21.8652 86.7184 23.2324 86.3252 23.9968C85.4331 25.7308 84.5993 27.2148 82.9977 29.9183L81.745 32.0331L81.737 33.0604C81.7258 34.4993 81.9115 35.915 82.2048 36.6254C82.3419 36.9577 82.5287 37.6375 82.6198 38.136C82.8423 39.3537 82.8868 39.4653 83.1486 39.4653C83.2726 39.4653 84.064 39.1118 84.9071 38.6798C86.404 37.9129 87.1515 37.7095 87.1502 38.0694C87.1496 38.2584 85.6383 39.1647 84.2105 39.8323C83.2175 40.2967 83.2004 40.3381 83.5516 41.4202C83.7351 41.9858 83.7448 42.1573 83.6017 42.3043C83.3376 42.5752 83.2157 42.5326 82.8281 42.0334C82.6345 41.7841 82.2691 41.4604 82.0159 41.314L81.5555 41.0479L79.9989 41.5128C79.1427 41.7684 77.9326 42.1485 77.3099 42.3574C76.6872 42.5663 75.0635 42.9869 73.7018 43.2921C67.018 44.7897 67.3503 44.7119 63.7979 45.6093C62.2027 46.0122 59.9297 46.5678 58.7468 46.8437C56.7586 47.3075 55.9804 47.5721 56.1574 47.7239C56.3187 47.8623 64.9834 46.9693 65.3488 46.7766C65.4228 46.7375 66.2166 46.6279 67.1126 46.5328C68.0086 46.4378 69.1716 46.2793 69.6972 46.1804C70.8795 45.9578 72.8313 45.6885 74.9661 45.4531C75.8606 45.3545 77.1335 45.1872 77.7948 45.0812C78.456 44.9753 79.347 44.8419 79.7749 44.7848C80.2027 44.7277 81.1893 44.5681 81.9672 44.4301C82.7453 44.2921 83.5223 44.179 83.6942 44.1788C83.866 44.1786 84.1632 44.0344 84.3547 43.8584C84.6761 43.5632 84.7632 43.5446 85.4814 43.6167C85.9183 43.6606 87.0553 43.6154 88.0728 43.5137C90.2289 43.2982 91.7412 43.2795 91.8759 43.4669C92.128 43.8173 90.9884 44.0449 88.3653 44.1678C87.1792 44.2233 86.0294 44.3301 85.8103 44.4049C85.5911 44.4798 85.1139 44.5429 84.7495 44.5453C84.3853 44.5475 83.4189 44.6595 82.6021 44.7937C81.7852 44.9279 80.5023 45.11 79.7512 45.1983C79.0001 45.2864 78.3246 45.3908 78.2502 45.43C78.1757 45.4694 77.772 45.5289 77.353 45.5624C76.934 45.596 76.082 45.7093 75.4595 45.8142C74.8372 45.9192 73.8189 46.0506 73.1967 46.1062C72.2291 46.1929 66.786 46.956 64.5693 47.3158C63.8872 47.4266 63.3921 47.4897 60.3264 47.8573C59.5485 47.9505 58.3713 48.0614 57.7103 48.1036C57.0493 48.1458 56.222 48.2304 55.8718 48.2917C55.5218 48.3529 54.8434 48.4309 54.3642 48.4648C53.8852 48.4989 53.3393 48.5767 53.1512 48.6377C52.9631 48.6988 51.9869 48.8659 50.9819 49.0091C48.9517 49.2984 47.2292 49.6819 43.5938 50.654C42.2477 51.014 41.1235 51.3085 41.0955 51.3085C41.0675 51.3085 40.7804 51.4966 40.4575 51.7267C39.8758 52.1411 39.8661 52.1432 39.3975 51.9519C38.9549 51.7711 38.8351 51.776 37.5309 52.0276C36.7644 52.1755 35.8189 52.3698 35.4298 52.4596C35.0408 52.5493 33.895 52.7657 32.8836 52.9405C31.8722 53.1154 30.7263 53.3378 30.3373 53.435C29.3275 53.6871 24.5125 54.2069 21.8521 54.3511C19.3946 54.4843 15.8277 54.5132 9.76534 54.4491C6.3245 54.4127 5.6831 54.4369 4.18077 54.6596C2.00744 54.9819 1.39387 55.0458 1.17568 54.9728H1.17571ZM21.9241 54.0166C25.3569 53.8129 27.7625 53.573 28.9595 53.315C29.4069 53.2186 30.5049 53.0238 31.3995 52.8821C33.087 52.6149 36.3095 51.9495 37.9071 51.5384C39.164 51.215 40.5466 50.6151 40.8888 50.2446C41.326 49.7713 41.0637 49.6602 39.9273 49.8369C39.4024 49.9186 38.3047 50.067 37.488 50.1668C34.5394 50.5269 32.5924 50.864 31.7592 51.1587C29.6675 51.8984 28.5354 52.0632 26.7017 51.8945C24.9333 51.7318 24.4561 51.7424 22.9211 51.9784C20.4867 52.3528 18.9166 52.5605 15.6374 52.9422C14.7041 53.0508 13.7812 53.1836 13.5866 53.2373C13.392 53.291 12.7872 53.3988 12.2428 53.4768C10.7592 53.6891 10.6162 53.7206 10.6158 53.8363C10.6151 54.0415 15.036 54.3032 17.3997 54.238C18.2162 54.2154 20.2522 54.1158 21.9241 54.0166V54.0166ZM28.7214 50.7529C30.522 50.5171 32.0991 50.2371 32.3992 50.0999C32.7653 49.9328 34.0459 48.7058 34.6576 47.9362C37.6244 44.2035 38.7197 40.4949 38.917 33.515L39.0184 29.9212L38.5049 29.5058C37.5355 28.7219 35.4255 28.2606 33.3973 28.3889C30.8973 28.5471 27.6143 29.6821 25.4872 31.1235C24.4722 31.8113 22.7224 33.3699 21.8202 34.3897C20.0562 36.3835 18.6208 39.0696 18.3116 40.9553C18.0786 42.3766 18.5097 44.6969 19.281 46.1724C19.4504 46.4966 20.1536 47.4585 21.066 48.6139C21.2432 48.8383 21.5286 49.0684 21.7002 49.1252C21.8719 49.1819 22.1707 49.3761 22.3644 49.5566C22.7423 49.9087 23.9997 50.6367 24.692 50.9042C25.1743 51.0907 26.5331 51.0395 28.7214 50.7529V50.7529ZM44.2984 50.0907C46.2314 49.5856 46.5391 49.4645 46.2622 49.3179C46.1023 49.2333 44.5045 49.414 43.5523 49.6243C42.9492 49.7576 42.2944 50.1668 42.2934 50.4108C42.2931 50.5057 42.3198 50.5834 42.3529 50.5834C42.386 50.5834 43.2615 50.3617 44.2984 50.0907V50.0907ZM38.197 49.5575C39.1692 49.4571 40.2829 49.343 40.6718 49.304C42.1787 49.1528 42.2708 49.0951 42.9433 47.8803C43.9146 46.1262 43.9478 45.9662 43.6029 44.6941C43.2844 43.5184 43.2192 42.0172 43.4695 41.6198C43.591 41.4266 43.7148 41.3885 44.0408 41.4444C44.6095 41.5416 44.6553 41.3796 44.4563 39.975C43.9985 36.7447 42.5627 33.3501 40.8087 31.3513C40.146 30.596 39.7425 30.3087 39.5614 30.4631C39.5181 30.5 39.4628 31.6297 39.4385 32.9735C39.3394 38.4321 38.7877 41.4875 37.295 44.843C36.8236 45.9029 35.1553 48.3675 34.2942 49.2761C33.9363 49.6538 33.6792 50.0125 33.7228 50.0731C33.7688 50.137 34.3556 50.0901 35.1158 49.9617C35.8382 49.8398 37.2248 49.6579 38.197 49.5575ZM45.9968 48.7775C49.598 48.5087 50.8691 48.3781 51.4192 48.2206C51.7306 48.1314 52.2399 48.0077 52.5512 47.9458C53.3963 47.7777 57.1631 46.8924 58.7765 46.4829C59.5547 46.2853 61.3057 45.8461 62.6675 45.5068C64.0293 45.1676 65.6211 44.7624 66.2048 44.6064C66.7885 44.4505 67.9982 44.1491 68.8931 43.9368C70.7317 43.5005 71.0656 43.3829 70.7332 43.2887C70.6167 43.2557 69.6945 43.2021 68.6838 43.1698C67.2037 43.1223 66.5591 43.0401 65.369 42.7469C64.5563 42.5467 63.8253 42.416 63.7444 42.4564C63.6634 42.4968 63.3421 42.7026 63.0304 42.9137C62.0909 43.5497 61.1069 43.7265 60.1288 43.4347C59.6661 43.2967 59.6535 43.3029 58.884 44.0452C58.4566 44.4576 57.8634 44.9011 57.566 45.0306C56.9776 45.2867 56.1152 45.3357 55.5322 45.1459C55.2013 45.0382 55.1379 45.0646 54.9212 45.3997C54.4074 46.1945 53.9114 46.6835 53.4146 46.8847C52.9727 47.0638 52.7869 47.0744 52.1329 46.9583C51.7122 46.8836 51.1398 46.6898 50.8609 46.5276C50.5819 46.3655 50.2955 46.2328 50.2243 46.2328C50.1531 46.2328 49.8086 46.4937 49.4587 46.8123C48.7201 47.4851 47.7809 47.9247 47.082 47.9247C46.8121 47.9247 46.2788 47.789 45.8969 47.6231C45.1682 47.3065 44.8494 47.2475 44.8488 47.4292C44.8486 47.489 44.5956 47.8242 44.2867 48.1742C43.7527 48.7794 43.6638 49.1003 44.0667 48.9683C44.1683 48.935 45.0369 48.8492 45.9968 48.7775V48.7775ZM48.0706 46.9263C48.6694 46.636 49.6614 45.7134 49.6624 45.4459C49.6627 45.358 49.532 45.0233 49.3718 44.702C48.9944 43.9452 48.9194 43.3922 49.1213 42.8572C49.4778 41.9132 50.1837 41.6428 50.9034 42.1747C51.2716 42.4468 51.2966 42.5235 51.2654 43.2845C51.2469 43.7342 51.1218 44.3615 50.9873 44.6786C50.7932 45.1362 50.7755 45.3171 50.9021 45.5563C51.1212 45.9701 51.6689 46.2518 52.389 46.3212C53.1354 46.3932 53.6526 46.0688 54.2301 45.1671L54.6157 44.5647L54.0173 43.5741C53.5303 42.7678 53.4206 42.4662 53.4282 41.9533C53.4442 40.8648 54.2183 40.1027 54.8952 40.509C55.5932 40.9278 56.0141 42.476 55.7316 43.5858C55.5871 44.1532 55.5972 44.2378 55.8255 44.3809C56.1589 44.5898 56.7903 44.5846 57.2789 44.3689C57.7313 44.1693 58.8592 43.1617 58.8599 42.9567C58.8603 42.88 58.7403 42.6476 58.5935 42.4404C58.1517 41.817 57.9009 41.0097 57.8598 40.0797C57.8176 39.1203 57.9942 38.8611 58.6899 38.8611C59.0732 38.8611 59.0745 38.8523 58.8108 38.1017C58.5474 37.3519 58.6848 37.055 59.5495 36.5056C61.4172 35.3188 64.2915 34.4492 67.3596 34.1425C69.5419 33.9244 71.5984 34.1873 73.7061 34.9542L74.6257 35.2888L74.9171 34.9565C75.233 34.5963 76.4264 32.2366 76.8844 31.0664C77.2059 30.2449 77.1973 29.3605 76.8235 24.8427C76.7106 23.4801 76.5804 21.3996 76.5339 20.2193C76.4872 19.0391 76.3966 18.0456 76.3324 18.0115C76.1402 17.9098 70.1017 20.5422 69.4008 21.0333C69.1052 21.2404 66.901 22.2368 66.2149 22.4736L65.6487 22.6689L66.003 22.4286C66.4051 22.1559 69.3291 20.7338 69.4878 20.7338C69.5449 20.7338 69.7045 20.6468 69.8424 20.5404C69.9803 20.434 70.6227 20.1168 71.2697 19.8355C72.9007 19.1266 74.1057 18.554 74.362 18.366C74.4811 18.2787 74.9434 18.0647 75.3894 17.8904C75.8354 17.7161 76.2557 17.4825 76.3235 17.3712C76.3912 17.2599 76.4951 16.1492 76.5544 14.9029C76.6565 12.7587 76.6483 12.6371 76.4041 12.6371C76.0874 12.6372 74.8622 13.0289 73.9649 13.417C73.1357 13.7757 71.8316 13.9963 71.5828 13.82C71.486 13.7513 71.4071 13.5679 71.4076 13.4124C71.4085 13.1732 71.6646 13.0183 73.0723 12.4051C75.1054 11.5194 76.3522 10.885 76.5797 10.6201C76.6739 10.5104 76.7937 9.88829 76.846 9.23754C76.9517 7.92121 77.2227 6.89728 77.5927 6.41687C78.04 5.83608 77.6974 5.83708 75.1708 6.42395C73.8526 6.73014 72.5512 7.02556 72.2789 7.08044C72.0066 7.13532 71.2743 7.32443 70.6517 7.50069C70.0291 7.67695 69.1695 7.89397 68.7416 7.98297C67.522 8.23659 66.0562 8.63289 64.0012 9.26456C63.7678 9.33634 63.2266 9.4761 62.7986 9.57513C62.3706 9.67418 61.4791 9.91244 60.8176 10.1046C60.156 10.2968 59.36 10.5045 59.0488 10.5661C58.3213 10.7104 56.0211 11.4196 55.6523 11.6135C55.4966 11.6954 55.1796 11.8001 54.948 11.8464C54.4276 11.9501 51.6933 12.8277 51.1473 13.0662C50.9269 13.1626 50.6845 13.2413 50.6088 13.2413C50.473 13.2413 49.8441 13.4689 48.4075 14.038C48.0035 14.198 47.6073 14.3289 47.5272 14.3289C47.447 14.3289 46.5036 14.6571 45.4307 15.058C44.3578 15.4591 43.3526 15.8329 43.1969 15.889C42.6211 16.096 42.2003 16.2636 41.9935 16.3685C41.8767 16.4277 41.6218 16.5328 41.4272 16.6019C39.9283 17.1341 38.0552 17.894 37.8381 18.0578C37.5423 18.2809 37.5693 18.7262 37.9486 19.8879C38.068 20.2535 38.3589 21.3684 38.595 22.3654C38.9953 24.0547 39.1131 24.9473 39.3453 28.0452L39.4358 29.2537L40.2419 29.9788C42.3543 31.879 43.5191 33.7966 44.3163 36.6859C44.4905 37.3173 44.763 38.2417 44.9219 38.7402C45.1314 39.398 45.2164 40.061 45.2317 41.1572C45.2462 42.1955 45.3255 42.8516 45.4853 43.2559C45.8482 44.1736 45.9066 45.1188 45.6395 45.7456C45.4218 46.256 45.4236 46.3022 45.6737 46.5915C46.2394 47.246 47.149 47.373 48.0706 46.9263V46.9263ZM51.9047 28.5747C51.8555 28.5063 51.9607 28.3183 52.1386 28.1569C52.4564 27.8687 55.8315 25.9303 56.0155 25.9303C56.0672 25.9303 55.7235 26.2042 55.2518 26.539C54.78 26.8738 54.3939 27.2 54.3937 27.2641C54.393 27.4184 54.7667 27.4122 55.1176 27.2519C55.2726 27.1811 55.4753 27.147 55.5681 27.1762C55.6608 27.2054 55.0041 27.527 54.1087 27.891C52.1217 28.6986 52.0171 28.7309 51.9047 28.5748V28.5747ZM55.8816 27.0143C55.9313 26.9457 56.652 26.5979 57.483 26.2411C58.314 25.8844 59.4083 25.3909 59.9145 25.1444C60.9777 24.6268 63.2653 23.5864 64.0916 23.2447C64.4031 23.1159 64.7756 22.9567 64.9195 22.891C65.0634 22.8253 65.2104 22.7967 65.2461 22.8273C65.3233 22.8935 64.0605 23.5538 62.6746 24.1721C62.1295 24.4151 61.3967 24.7544 61.0462 24.9258C60.3199 25.2811 55.9671 27.1388 55.8609 27.1388C55.8225 27.1388 55.8318 27.0828 55.8816 27.0143V27.0143ZM44.9538 45.1226C44.909 45.0261 44.8754 45.0548 44.8681 45.1956C44.8616 45.323 44.8946 45.3943 44.9418 45.3541C44.9889 45.314 44.9943 45.2097 44.9538 45.1226V45.1226ZM50.5018 44.0396C50.7364 43.4694 50.7063 42.6142 50.4487 42.5297C49.9109 42.353 49.5562 43.124 49.8061 43.9266C49.9896 44.5159 50.2861 44.564 50.5018 44.0396V44.0396ZM44.5195 42.7697C44.4744 42.6139 44.38 42.4865 44.3099 42.4865C44.0886 42.4865 43.9976 43.155 44.1688 43.523L44.3332 43.8763L44.4674 43.4647C44.5412 43.2382 44.5646 42.9255 44.5195 42.7697ZM55.2141 42.6277C55.2177 41.6197 54.9725 41.0114 54.5818 41.0597C54.3805 41.0846 54.2375 41.2284 54.1467 41.4972C53.9123 42.1913 54.6744 43.8143 55.0746 43.4731C55.1499 43.409 55.2126 43.0286 55.2141 42.6277V42.6277ZM62.0108 42.6844C62.2613 42.594 62.5837 42.4076 62.7272 42.2703C62.9842 42.0245 62.979 42.0158 62.3759 41.682C62.0392 41.4957 61.4289 41.1306 61.0196 40.8708C60.6103 40.6108 60.2537 40.4195 60.227 40.4454C60.2004 40.4713 60.1436 40.969 60.1009 41.5514C60.0351 42.4488 60.0585 42.6279 60.2546 42.726C60.5927 42.8951 61.4866 42.8739 62.0108 42.6844V42.6844ZM72.492 42.6054C73.9614 42.4833 75.8261 42.1005 77.737 41.5284C79.3709 41.0395 81.0483 40.4294 81.1523 40.2864C81.2834 40.1059 78.8823 38.0834 78.6699 38.1954C78.5492 38.2591 78.5259 38.4812 78.5916 38.9425C78.6548 39.3862 78.63 39.6556 78.5147 39.7739C77.9945 40.3077 77.4826 39.5014 77.475 38.136L77.47 37.2296L76.3414 36.5956C75.7207 36.2469 75.1514 35.9789 75.0761 36C75.001 36.0212 74.5211 36.6328 74.0098 37.3591C72.6505 39.2901 71.3387 40.8759 70.7704 41.2753C70.1901 41.6831 69.3474 41.845 68.8916 41.6361C68.7193 41.5571 68.4336 41.3491 68.2567 41.1737L67.935 40.8551L67.0927 41.2478C66.402 41.5699 66.0946 41.6406 65.3849 41.6406C64.4562 41.6406 64.2933 41.7556 64.8916 41.989C65.2201 42.1171 65.7183 42.2244 67.767 42.6079C68.4822 42.7418 70.8661 42.7405 72.492 42.6056V42.6054ZM59.5048 40.8628C59.402 40.035 59.1064 39.4653 58.7798 39.4653C58.5859 39.4653 58.5625 39.5927 58.6196 40.3415C58.6611 40.8863 58.7867 41.366 58.9517 41.61C59.1958 41.9712 59.2319 41.9857 59.4053 41.7914C59.5401 41.6404 59.5685 41.3757 59.5048 40.8628V40.8628ZM63.7698 41.2024C63.8187 41.0944 63.7755 40.8088 63.6732 40.568C63.3233 39.7416 63.2778 39.1806 63.477 38.1483C63.6928 37.03 63.8413 36.8009 64.2221 36.9989C64.7893 37.2941 65.0266 38.0062 65.0359 39.4408C65.0411 40.2392 65.1078 40.8603 65.1966 40.9365C65.4318 41.1382 66.2166 40.9577 66.9956 40.5226C67.469 40.2583 67.8669 39.893 68.2134 39.4049C68.5465 38.9356 68.8354 38.6662 69.0323 38.6412C69.4071 38.5936 69.4263 38.8328 69.1107 39.6174C68.9873 39.9242 68.9063 40.3281 68.9307 40.5152C68.9692 40.8104 69.0429 40.8599 69.4913 40.8919C70.3522 40.9533 71.1634 40.1852 73.483 37.1123C74.4976 35.7683 74.5037 35.5406 73.5333 35.2155C72.0201 34.7085 70.2054 34.3897 68.8336 34.3897C65.6474 34.3897 61.5857 35.5562 59.696 37.0141C59.3526 37.2791 59.3835 37.8411 59.7809 38.559C60.2539 39.4135 60.6998 39.8811 61.6465 40.5153C62.8843 41.3445 63.6006 41.5763 63.7698 41.2024V41.2024ZM64.5452 39.0751C64.5628 38.2433 64.4552 37.9124 64.2298 38.1045C64.0145 38.2879 63.925 39.38 64.0944 39.7569C64.3327 40.287 64.5258 39.995 64.5452 39.0751ZM82.1469 39.7639C82.2208 39.6005 82.0803 38.7657 81.639 36.7463C81.5664 36.414 81.4137 35.6291 81.2997 35.0023C81.0828 33.8094 80.9516 33.5497 80.6975 33.8106C80.3113 34.2068 78.6604 37.0954 78.6984 37.3082C78.7378 37.5287 81.7024 39.9284 81.9528 39.9425C82.0136 39.9456 82.1008 39.8656 82.1469 39.7639V39.7639ZM77.5691 35.2325C77.5034 33.1816 77.3668 31.937 77.2021 31.8904C77.1218 31.8679 76.7826 32.4345 76.4484 33.1497C76.1141 33.8649 75.721 34.6669 75.5747 34.9317C75.4283 35.1966 75.3541 35.4831 75.4097 35.5685C75.5718 35.8176 77.1689 36.6854 77.4014 36.6508C77.579 36.6244 77.6064 36.393 77.5691 35.2325V35.2325ZM79.4899 34.4852C81.1383 32.0384 80.9995 32.5017 80.9106 29.7428C80.8677 28.4104 80.8348 26.4364 80.8375 25.3563C80.8404 24.2475 80.7861 23.3925 80.7128 23.3925C80.6415 23.3925 80.2819 24.1947 79.9136 25.1751C79.2759 26.8726 78.8603 27.8629 78.2784 29.0724C77.9059 29.8467 77.8094 31.2293 77.9564 33.6876C78.0803 35.7593 78.1508 36.149 78.3803 36.028C78.4402 35.9963 78.9396 35.3021 79.4899 34.4852ZM7.51044 33.192C8.47408 32.8778 12.7113 31.0183 14.4483 30.1475C15.2272 29.757 16.502 29.0577 17.2812 28.5935C20.0589 26.9387 20.5514 26.6439 21.4817 26.0792C23.0123 25.1502 26.8272 22.6687 26.919 22.5423C27.0978 22.2963 26.5902 22.4383 24.9348 23.0976C23.113 23.8231 22.0436 24.269 21.3633 24.5865C20.9562 24.7765 20.4146 25.0026 20.1598 25.089C19.66 25.2584 18.6765 25.7248 16.0145 27.0546C14.2717 27.9252 13.9666 28.0912 12.1947 29.1329C11.6294 29.4652 10.6002 30.0617 9.90773 30.4584C8.49626 31.267 6.4513 32.8974 6.45015 33.2151C6.44918 33.4807 6.63798 33.4765 7.51044 33.192V33.192ZM78.1339 28.3775C78.6182 27.5002 80.5498 22.4823 80.8437 21.3381C81.0326 20.6025 81.3658 16.2372 81.2524 15.9824C81.1977 15.8596 81.0063 15.7789 80.7687 15.7785L80.3755 15.7781L80.8891 15.3759C81.3639 15.0042 81.4148 14.8968 81.5616 13.9565C82.0157 11.0478 82.0396 10.7889 81.8619 10.6949C81.6013 10.5569 78.8885 11.5206 77.9037 12.101C77.4588 12.3633 77.3757 12.4942 77.2284 13.1669C77.1359 13.5889 77.0579 14.5956 77.0548 15.4042C77.049 17.0247 77.1455 17.1986 77.8369 16.8122C78.0358 16.7009 78.2695 16.6302 78.3562 16.6549C78.4428 16.6797 78.2739 16.8265 77.9806 16.981C76.8663 17.5686 76.8728 17.552 76.9679 19.586C77.0145 20.5829 77.074 21.7522 77.1 22.1842C77.1261 22.6162 77.1852 23.7311 77.2313 24.6616C77.2774 25.5921 77.3782 26.7614 77.4552 27.2599C77.6976 28.8297 77.7955 28.9909 78.1339 28.3777V28.3775ZM78.8098 16.4399C78.9611 16.3423 79.1522 16.2642 79.2345 16.2663C79.3168 16.2686 79.2604 16.35 79.1091 16.4476C78.9579 16.5452 78.7667 16.6233 78.6844 16.6212C78.6021 16.619 78.6586 16.5375 78.8098 16.4399V16.4399ZM79.5934 16.0848C79.6785 15.9975 79.877 15.8972 80.0345 15.8621C80.2587 15.812 80.2873 15.8325 80.1663 15.9569C80.0812 16.0441 79.8827 16.1443 79.7252 16.1796C79.501 16.2296 79.4724 16.2091 79.5934 16.0848V16.0848ZM33.2276 19.3907C35.2161 18.6314 35.5066 18.4592 35.8311 17.8481C36.202 17.1499 35.9344 16.4058 35.3676 16.5595C35.1033 16.6311 34.6922 16.9259 32.6449 18.5115C32.1167 18.9208 31.3628 19.6174 31.1884 19.8577C30.9733 20.154 31.6121 20.0077 33.2276 19.3907V19.3907ZM82.775 15.1667C82.6357 14.973 82.3033 15.0432 82.1411 15.3008C82.014 15.5026 81.9133 16.8123 81.9881 17.2897C81.9986 17.3562 82.1981 16.931 82.4316 16.3449C82.665 15.7588 82.8196 15.2287 82.775 15.1667V15.1667ZM82.9265 14.2841C83.1939 13.9369 83.5269 12.4361 83.6221 11.1486C83.6786 10.3859 83.6515 10.1907 83.4813 10.1349C83.0935 10.0075 82.6738 10.5322 82.5683 11.2764C82.5139 11.6591 82.3929 12.4811 82.2993 13.1028C82.2058 13.7246 82.163 14.3092 82.2044 14.4019C82.3198 14.6614 82.6814 14.6023 82.9265 14.2841ZM76.5029 11.7307C76.5032 11.631 76.4476 11.5495 76.3794 11.5495C76.3111 11.5495 76.1759 11.631 76.0787 11.7307C75.9312 11.8821 75.9514 11.912 76.2021 11.912C76.3746 11.912 76.5024 11.8349 76.5029 11.7307ZM78.6566 11.1374C79.0677 10.9772 79.8179 10.7288 80.3238 10.5854C81.8046 10.1656 82.2516 9.85806 82.4364 9.13225C82.6475 8.30258 82.6403 7.68198 82.4194 7.68361C82.104 7.6859 80.9004 8.03026 80.4971 8.23356C80.2809 8.34251 79.9555 8.66976 79.7738 8.96076C79.5922 9.25177 79.2444 9.62288 79.0011 9.78547C77.9547 10.4845 77.352 11.043 77.4373 11.2344C77.5543 11.4974 77.7784 11.4796 78.6566 11.1374V11.1374ZM78.408 9.36944C78.6927 9.10096 78.9636 8.72151 79.01 8.52621C79.1208 8.06016 79.2503 7.9819 80.2919 7.75173C81.5027 7.4842 82.4568 7.11869 82.4575 6.92214C82.4591 6.49303 80.9441 5.74873 80.0691 5.74873C78.6531 5.74873 77.923 6.55046 77.651 8.40422C77.5684 8.96744 77.5003 9.52485 77.4999 9.64292C77.4987 9.99617 77.8582 9.88789 78.408 9.36944ZM83.5327 9.18477C83.6703 8.8806 83.3523 8.70103 83.1749 8.98276C83.0266 9.21834 83.0862 9.37418 83.3248 9.37418C83.392 9.37418 83.4856 9.28894 83.5327 9.18477V9.18477ZM86.0365 8.47685C86.8261 8.18271 87.8543 7.82343 88.3213 7.67845C90.1986 7.09567 90.3286 6.97784 89.7994 6.33959C89.314 5.75429 88.8478 5.61188 88.0312 5.79939C86.9435 6.04909 83.9798 7.05388 83.7479 7.25152C83.5669 7.40571 83.5638 7.52515 83.7248 8.13017C83.8273 8.51527 83.9359 8.87114 83.9663 8.92099C84.084 9.11394 84.655 8.99143 86.0365 8.47685V8.47685ZM83.4408 5.57928C83.6064 5.12052 83.7162 4.7232 83.6849 4.69636C83.6536 4.6695 83.2457 4.73217 82.7785 4.83559C82.3112 4.93902 81.7631 5.02364 81.5605 5.02364C80.914 5.02364 81.1177 5.41784 82.0721 6.01359C82.557 6.31624 82.9955 6.53 83.0467 6.48863C83.0979 6.44724 83.2752 6.03804 83.4408 5.57928V5.57928ZM85.3498 6.28446C86.8208 5.88419 88.0471 5.37151 88.0478 5.15641C88.0481 5.06327 87.7311 4.79931 87.3431 4.56985C86.6854 4.18074 86.5857 4.15785 85.8629 4.22992C84.7455 4.34136 84.5063 4.52082 84.1585 5.50853C83.8866 6.28114 83.8755 6.59467 84.1201 6.59467C84.1694 6.59467 84.7228 6.45507 85.3498 6.28446V6.28446ZM89.6037 4.89061C89.915 4.81818 90.3608 4.68296 90.5944 4.59014C91.2082 4.34625 94.5286 3.35176 95.689 3.06426C96.2337 2.92931 97.0934 2.69461 97.5993 2.54272C98.1053 2.39082 98.6942 2.23328 98.9081 2.19261C99.1222 2.15196 99.2974 2.059 99.2977 1.98605C99.298 1.90306 99.1525 1.88254 98.9092 1.93126C98.6951 1.97406 98.1064 2.06271 97.6008 2.12822C95.9066 2.34776 95.1371 2.47013 93.1454 2.83674C92.0561 3.03723 91.0023 3.20344 90.8036 3.2061C90.6049 3.20883 90.0638 3.31348 89.6011 3.43881C89.1386 3.56416 88.4895 3.72949 88.1587 3.80621C87.8247 3.88373 87.5572 4.01904 87.5569 4.11075C87.5564 4.25494 88.7371 5.02477 88.9561 5.02297C89.001 5.02259 89.2925 4.96304 89.6037 4.89061V4.89061ZM92.4816 10.403C92.482 10.2819 94.5255 9.4876 94.7375 9.52625C94.859 9.54841 94.4844 9.768 93.9051 10.0142C92.9334 10.4271 92.481 10.5507 92.4816 10.403ZM95.4546 9.20062C95.4547 9.17162 96.1396 8.87067 96.9767 8.5318C97.8137 8.19292 98.7342 7.80877 99.0222 7.67813C99.3102 7.5475 99.6555 7.4406 99.7895 7.4406C99.9234 7.4406 100.134 7.36483 100.257 7.27223C100.38 7.17962 100.926 6.93993 101.471 6.7396C102.016 6.53925 103.259 6.06644 104.232 5.68892C105.954 5.02091 106.872 4.69109 110.929 3.28253C112.004 2.90918 113.135 2.49451 113.441 2.36104C114.027 2.10642 114.219 2.18945 113.693 2.46957C112.744 2.97526 110.82 3.6949 108.265 4.49989C107.954 4.59798 107.264 4.8666 106.734 5.09682C106.203 5.32704 105.343 5.65214 104.822 5.81927C104.302 5.98639 103.749 6.1938 103.594 6.28016C103.438 6.36652 103.056 6.5046 102.744 6.58703C102.201 6.73093 101.557 6.96917 99.9465 7.62187C99.5367 7.78804 99.1507 7.924 99.0889 7.924C98.9872 7.924 97.1131 8.65342 96.115 9.08144C95.7146 9.25313 95.4542 9.30012 95.4546 9.20062Z" fill="#D92027" stroke="#D92027" stroke-width="0.8"/>
</svg>
